ed8f5a8054e241d3e09bd6e36a52f7d3 *tests/data/fate/ffmpeg-bsf-remove-r.avi
130174 tests/data/fate/ffmpeg-bsf-remove-r.avi
#tb 0: 1/25
#media_type 0: video
#codec_id 0: mpeg4
#dimensions 0: 716x236
#sar 0: 1/1
0,          0, -9223372036854775808,        1,    20231, 0x3361b49c
0,          1, -9223372036854775808,        1,    17956, 0x31f702a2, F=0x0
0,          2, -9223372036854775808,        1,    22926, 0xe160c517, F=0x0
0,          3, -9223372036854775808,        1,    18722, 0x2b85791c, F=0x0
0,          4, -9223372036854775808,        1,    12655, 0x791f1995, F=0x0
0,          5, -9223372036854775808,        1,     4762, 0x771b1472, F=0x0
0,          6, -9223372036854775808,        1,     3190, 0x22103a3c, F=0x0
0,          7, -9223372036854775808,        1,     1993, 0xdae50653, F=0x0
0,          8, -9223372036854775808,        1,     1428, 0xdf68f5ca, F=0x0
0,          9, -9223372036854775808,        1,     1254, 0x3fcb8947, F=0x0
0,         10, -9223372036854775808,        1,     1058, 0x1bd02021, F=0x0
0,         11, -9223372036854775808,        1,     1052, 0x4f91300d, F=0x0
0,         12, -9223372036854775808,        1,     2644, 0xfa294bfe
0,         13, -9223372036854775808,        1,      933, 0xaa06ea86, F=0x0
0,         14, -9223372036854775808,        1,      881, 0xe3f3c8cc, F=0x0
0,         15, -9223372036854775808,        1,      961, 0x96bd081e, F=0x0
0,         16, -9223372036854775808,        1,     1050, 0x9ca91532, F=0x0
0,         17, -9223372036854775808,        1,      935, 0xe57ee6a1, F=0x0
0,         18, -9223372036854775808,        1,     1084, 0xd3611d62, F=0x0
0,         19, -9223372036854775808,        1,      953, 0x2b29eb30, F=0x0
0,         20, -9223372036854775808,        1,      996, 0x739cf9e2, F=0x0
0,         21, -9223372036854775808,        1,     1012, 0x086700a0, F=0x0
0,         22, -9223372036854775808,        1,     1083, 0x0887271d, F=0x0
0,         23, -9223372036854775808,        1,     1226, 0x655878e9, F=0x0
0,         24, -9223372036854775808,        1,     2851, 0xb05be8a1
